<svg width="11" height="16" viewBox="0 0 11 16" fill="none" xmlns="http://www.w3.org/2000/svg">
<path d="M2.29855 0H8.42801C9.03763 0 9.62227 0.265221 10.0533 0.737318C10.4844 1.20941 10.7266 1.84971 10.7266 2.51736V15.1042L5.36328 12.5868L0 15.1042V2.51736C0 1.84971 0.242168 1.20941 0.67323 0.737318C1.10429 0.265221 1.68894 0 2.29855 0ZM2.29855 0.83912C1.89214 0.83912 1.50238 1.01593 1.215 1.33067C0.927628 1.6454 0.766183 2.07226 0.766183 2.51736V13.8455L5.36328 11.6973L9.96038 13.8455V2.51736C9.96038 2.07226 9.79893 1.6454 9.51156 1.33067C9.22418 1.01593 8.83442 0.83912 8.42801 0.83912H2.29855Z" fill="#4C9DD1"/>
</svg>
