<svg width="20" height="20" viewBox="0 0 20 20" fill="none" xmlns="http://www.w3.org/2000/svg">
<path d="M10.3617 13.5667C10.4628 13.4656 10.5133 13.345 10.5133 13.205C10.5133 13.065 10.4628 12.9447 10.3617 12.8442C10.2606 12.7436 10.14 12.6928 10 12.6917C9.86 12.6906 9.73944 12.7411 9.63833 12.8433C9.53722 12.9456 9.48667 13.0658 9.48667 13.2042C9.48667 13.3425 9.53722 13.4631 9.63833 13.5658C9.73944 13.6686 9.86 13.7189 10 13.7167C10.14 13.7144 10.2606 13.6642 10.3617 13.5658M10.2975 10.8408C10.3769 10.7608 10.4167 10.6619 10.4167 10.5442V6.3775C10.4167 6.25917 10.3767 6.16028 10.2967 6.08083C10.2167 6.00139 10.1175 5.96139 9.99917 5.96083C9.88083 5.96028 9.78194 6.00028 9.7025 6.08083C9.62305 6.16139 9.58333 6.26028 9.58333 6.3775V10.5442C9.58333 10.6619 9.62333 10.7608 9.70333 10.8408C9.78333 10.9208 9.8825 10.9608 10.0008 10.9608C10.1192 10.9608 10.2181 10.9208 10.2975 10.8408ZM10.0025 17.5C8.96583 17.5 7.99083 17.3033 7.0775 16.91C6.16472 16.5161 5.37056 15.9817 4.695 15.3067C4.01944 14.6317 3.48472 13.8383 3.09083 12.9267C2.69694 12.015 2.5 11.0403 2.5 10.0025C2.5 8.96472 2.69694 7.98972 3.09083 7.0775C3.48417 6.16472 4.01778 5.37056 4.69167 4.695C5.36556 4.01944 6.15917 3.48472 7.0725 3.09083C7.98583 2.69694 8.96083 2.5 9.9975 2.5C11.0342 2.5 12.0092 2.69694 12.9225 3.09083C13.8353 3.48417 14.6294 4.01806 15.305 4.6925C15.9806 5.36694 16.5153 6.16056 16.9092 7.07333C17.3031 7.98611 17.5 8.96083 17.5 9.9975C17.5 11.0342 17.3033 12.0092 16.91 12.9225C16.5167 13.8358 15.9822 14.63 15.3067 15.305C14.6311 15.98 13.8378 16.5147 12.9267 16.9092C12.0156 17.3036 11.0408 17.5006 10.0025 17.5Z" fill="#F34876"/>
</svg>
