<svg width="16" height="15" viewBox="0 0 16 15" fill="none" xmlns="http://www.w3.org/2000/svg">
<mask id="mask0_1085_1560" style="mask-type:luminance" maskUnits="userSpaceOnUse" x="0" y="0" width="16" height="15">
<path fill-rule="evenodd" clip-rule="evenodd" d="M0 0H15.3301V14.5641H0V0Z" fill="white"/>
</mask>
<g mask="url(#mask0_1085_1560)">
<path fill-rule="evenodd" clip-rule="evenodd" d="M3.64282 12.6543C4.05651 12.6543 4.44667 12.8033 4.85964 12.9612C7.38957 14.0725 10.3817 13.567 12.331 11.7158C14.903 9.27102 14.903 5.29421 12.331 2.8508C11.0857 1.66771 9.42949 1.01654 7.66632 1.01654C5.90243 1.01654 4.24553 1.66839 3.00089 2.85147C1.05084 4.70267 0.520175 7.54518 1.67922 9.92558C1.84612 10.3179 2.00732 10.7001 2.00732 11.0971C2.00732 11.4935 1.86396 11.8926 1.73771 12.245C1.63357 12.535 1.47594 12.9727 1.57723 13.0689C1.67637 13.1665 2.13999 13.0127 2.44598 12.9131C2.8133 12.7938 3.22985 12.657 3.64282 12.6543ZM7.6493 14.5643C6.55944 14.5643 5.46245 14.3454 4.43607 13.8941C4.13365 13.7789 3.85048 13.6705 3.64721 13.6705C3.41326 13.6719 3.09871 13.7749 2.79486 13.8745C2.17147 14.0777 1.39545 14.3312 0.821273 13.7877C0.249239 13.2436 0.513145 12.5084 0.725696 11.9169C0.830545 11.6255 0.938248 11.3247 0.938248 11.097C0.938248 10.91 0.843384 10.6715 0.697879 10.3279C-0.638055 7.58704 -0.0203727 4.28376 2.24565 2.1324C3.69214 0.757553 5.61723 0 7.66642 0C9.71561 0 11.6414 0.756875 13.0879 2.13172C16.0779 4.9722 16.0779 9.59341 13.0879 12.4339C11.6222 13.827 9.64857 14.5643 7.6493 14.5643Z" fill="#4C9DD1"/>
</g>
<path fill-rule="evenodd" clip-rule="evenodd" d="M10.4817 8.24142C10.088 8.24142 9.76562 7.93854 9.76562 7.56383C9.76562 7.18912 10.0816 6.88623 10.4753 6.88623H10.4817C10.8755 6.88623 11.195 7.18912 11.195 7.56383C11.195 7.93854 10.8755 8.24142 10.4817 8.24142Z" fill="#4C9DD1"/>
<path fill-rule="evenodd" clip-rule="evenodd" d="M7.62236 8.24142C7.22864 8.24142 6.90625 7.93854 6.90625 7.56383C6.90625 7.18912 7.22151 6.88623 7.61594 6.88623H7.62236C8.01608 6.88623 8.33562 7.18912 8.33562 7.56383C8.33562 7.93854 8.01608 8.24142 7.62236 8.24142Z" fill="#4C9DD1"/>
<path fill-rule="evenodd" clip-rule="evenodd" d="M4.76299 8.24142C4.36927 8.24142 4.04688 7.93854 4.04688 7.56383C4.04688 7.18912 4.36285 6.88623 4.75657 6.88623H4.76299C5.15671 6.88623 5.47625 7.18912 5.47625 7.56383C5.47625 7.93854 5.15671 8.24142 4.76299 8.24142Z" fill="#4C9DD1"/>
</svg>
