<svg width="15" height="15" viewBox="0 0 15 15" fill="none" xmlns="http://www.w3.org/2000/svg">
<path fill-rule="evenodd" clip-rule="evenodd" d="M7.50002 1.12499C3.98477 1.12499 1.12502 3.98474 1.12502 7.49999C1.12502 11.0152 3.98477 13.875 7.50002 13.875C11.0153 13.875 13.875 11.0152 13.875 7.49999C13.875 3.98474 11.0153 1.12499 7.50002 1.12499ZM7.5 15C3.3645 15 0 11.6355 0 7.5C0 3.3645 3.3645 0 7.5 0C11.6355 0 15 3.3645 15 7.5C15 11.6355 11.6355 15 7.5 15Z" fill="black"/>
<path fill-rule="evenodd" clip-rule="evenodd" d="M10.0736 10.2695C9.97534 10.2695 9.87634 10.244 9.78559 10.1908L6.95809 8.50403C6.78859 8.40203 6.68359 8.21828 6.68359 8.02028V4.38428C6.68359 4.07378 6.93559 3.82178 7.24609 3.82178C7.55734 3.82178 7.80859 4.07378 7.80859 4.38428V7.70078L10.3623 9.22328C10.6286 9.38303 10.7163 9.72803 10.5573 9.99503C10.4516 10.1713 10.2648 10.2695 10.0736 10.2695Z" fill="black"/>
</svg>
