<svg width="28" height="28" viewBox="0 0 28 28" fill="none" xmlns="http://www.w3.org/2000/svg">
<circle cx="13.6405" cy="13.6405" r="13.3905" fill="#FFF2F2" stroke="#F34876" stroke-width="0.5"/>
<path d="M6.16406 8.5483L7.27363 7.46474L15.2746 15.4831L21.1172 21.3083L20.0163 22.4179L17.4157 19.8173H7.24762V17.2168C7.24762 15.6044 9.5101 14.5469 11.6599 14.0615L6.16406 8.5483ZM21.1172 17.2168V19.1065L19.4702 17.4595V17.2168C19.4702 16.9914 19.0368 16.6533 18.3433 16.3499L15.9161 13.9054C18.2653 14.2955 21.1172 15.4051 21.1172 17.2168ZM8.89463 17.2168V18.1703H15.7687L13.0728 15.4831C10.8797 15.7431 8.89463 16.74 8.89463 17.2168ZM14.1824 5.94775C15.102 5.94775 15.984 6.31307 16.6342 6.96333C17.2845 7.61359 17.6498 8.49554 17.6498 9.41515C17.6498 11.1055 16.4362 12.5185 14.8325 12.8219L10.7757 8.76501C10.9276 7.97268 11.3508 7.25802 11.9725 6.74388C12.5942 6.22973 13.3756 5.94823 14.1824 5.94775ZM14.1824 7.68145C13.7226 7.68145 13.2816 7.86411 12.9565 8.18924C12.6314 8.51437 12.4487 8.95534 12.4487 9.41515C12.4487 9.87495 12.6314 10.3159 12.9565 10.6411C13.2816 10.9662 13.7226 11.1488 14.1824 11.1488C14.6422 11.1488 15.0832 10.9662 15.4083 10.6411C15.7334 10.3159 15.9161 9.87495 15.9161 9.41515C15.9161 8.95534 15.7334 8.51437 15.4083 8.18924C15.0832 7.86411 14.6422 7.68145 14.1824 7.68145Z" fill="#F34876"/>
</svg>
