<svg width="18" height="18" viewBox="0 0 18 18" fill="none" xmlns="http://www.w3.org/2000/svg">
<circle cx="8.96753" cy="8.96753" r="8.71753" fill="#C5E4F8" stroke="#4C9DD1" stroke-width="0.5"/>
<path d="M4.40414 5.73686C4.64858 5.49241 4.93878 5.2985 5.25816 5.16621C5.57755 5.03391 5.91986 4.96582 6.26556 4.96582C6.61125 4.96582 6.95357 5.03391 7.27295 5.16621C7.59233 5.2985 7.88253 5.49241 8.12697 5.73686L8.96714 6.57704L9.80732 5.73686C10.3011 5.24318 10.9707 4.96587 11.6689 4.96592C12.3672 4.96598 13.0368 5.2434 13.5304 5.73715C14.0241 6.2309 14.3014 6.90055 14.3014 7.59877C14.3013 8.29699 14.0239 8.96659 13.5301 9.46027L12.69 10.2999L12.6975 10.3074L8.97464 14.0308L8.96714 14.0233L8.95965 14.0308L5.23682 10.3074L5.24432 10.2999L4.40414 9.46027C4.15961 9.21581 3.96562 8.92558 3.83328 8.60615C3.70093 8.28671 3.63281 7.94433 3.63281 7.59856C3.63281 7.2528 3.70093 6.91042 3.83328 6.59098C3.96562 6.27155 4.15961 5.98131 4.40414 5.73686Z" stroke="#4C9DD1" stroke-linejoin="round"/>
</svg>
