<svg width="22" height="21" viewBox="0 0 22 21" fill="none" xmlns="http://www.w3.org/2000/svg">
<path d="M5.52195 16.5V10.5C5.52195 9.17392 6.05105 7.90215 6.99285 6.96447C7.93465 6.02678 9.212 5.5 10.5439 5.5C11.8758 5.5 13.1532 6.02678 14.095 6.96447C15.0368 7.90215 15.5659 9.17392 15.5659 10.5V16.5M5.52195 16.5H15.5659M5.52195 16.5C4.98919 16.5 4.47825 16.7107 4.10153 17.0858C3.72481 17.4609 3.51317 17.9696 3.51317 18.5V19.5C3.51317 19.7652 3.61899 20.0196 3.80735 20.2071C3.99571 20.3946 4.25118 20.5 4.51756 20.5H16.5702C16.8366 20.5 17.0921 20.3946 17.2805 20.2071C17.4688 20.0196 17.5746 19.7652 17.5746 19.5V18.5C17.5746 17.9696 17.363 17.4609 16.9863 17.0858C16.6096 16.7107 16.0986 16.5 15.5659 16.5M19.5834 10.5H20.5878M17.0724 3L16.5702 3.5M0.5 10.5H1.50439M10.5439 0.5V1.5M3.44186 3.429L4.15196 4.136M10.5439 10.5V16.5" stroke="#F34876" stroke-linecap="round" stroke-linejoin="round"/>
</svg>
