<svg width="17" height="15" viewBox="0 0 17 15" fill="none" xmlns="http://www.w3.org/2000/svg">
<g clip-path="url(#clip0_556_15272)">
<path d="M15.4062 13.9284H1.59375C0.711875 13.9284 0 13.2106 0 12.3213V2.67843C0 1.78915 0.711875 1.07129 1.59375 1.07129H15.4062C16.2881 1.07129 17 1.78915 17 2.67843V12.3213C17 13.2106 16.2881 13.9284 15.4062 13.9284ZM1.59375 2.14272C1.29625 2.14272 1.0625 2.37843 1.0625 2.67843V12.3213C1.0625 12.6213 1.29625 12.857 1.59375 12.857H15.4062C15.7037 12.857 15.9375 12.6213 15.9375 12.3213V2.67843C15.9375 2.37843 15.7037 2.14272 15.4062 2.14272H1.59375Z" fill="#AFB1B6"/>
<path d="M8.49964 9.60009C7.75589 9.60009 7.07589 9.30009 6.56589 8.75366L0.987769 2.77509C0.785894 2.56081 0.796519 2.21795 1.00902 2.01438C1.22152 1.81081 1.56152 1.82152 1.76339 2.03581L7.34152 8.01438C7.94714 8.66795 9.05214 8.66795 9.65777 8.01438L15.2359 2.04652C15.4378 1.83224 15.7778 1.82152 15.9903 2.02509C16.2028 2.22866 16.2134 2.57152 16.0115 2.78581L10.4334 8.76438C9.92339 9.31081 9.24339 9.61081 8.49964 9.61081V9.60009Z" fill="#AFB1B6"/>
</g>
<defs>
<clipPath id="clip0_556_15272">
<rect width="17" height="15" fill="white"/>
</clipPath>
</defs>
</svg>
