<svg width="24" height="24" viewBox="0 0 24 24" fill="none" xmlns="http://www.w3.org/2000/svg">
<path d="M13.2127 8.28699C12.8979 7.97208 12.5242 7.72227 12.1128 7.55183C11.7014 7.3814 11.2605 7.29367 10.8152 7.29367C10.3699 7.29367 9.92903 7.3814 9.51766 7.55183C9.10629 7.72227 8.73253 7.97208 8.41772 8.28699L4.99272 11.713C4.357 12.3488 3.99991 13.2112 4 14.1103C4.00009 15.0095 4.35737 15.8718 4.99322 16.5075C5.62908 17.1432 6.49143 17.5003 7.39058 17.5002C8.28972 17.5001 9.152 17.1428 9.78772 16.507L10.1087 16.203M9.78772 11.713C10.1025 12.0279 10.4763 12.2777 10.8877 12.4481C11.299 12.6186 11.7399 12.7063 12.1852 12.7063C12.6305 12.7063 13.0714 12.6186 13.4828 12.4481C13.8942 12.2777 14.2679 12.0279 14.5827 11.713L18.0067 8.28699C18.6426 7.65127 18.9999 6.78899 18.9999 5.88984C19 4.9907 18.6429 4.12835 18.0072 3.49249C17.3715 2.85663 16.5092 2.49936 15.6101 2.49927C14.7109 2.49917 13.8486 2.85627 13.2127 3.49199L12.1847 4.45299" stroke="#4C9DD1" stroke-width="2" stroke-linecap="round" stroke-linejoin="round"/>
</svg>
