<svg width="24" height="24" viewBox="0 0 24 24" fill="none" xmlns="http://www.w3.org/2000/svg">
<path d="M11.3709 17.7984C15.3261 17.7984 18.7473 15.6033 20.5073 12.36C18.7473 9.11678 15.3261 6.92166 11.3709 6.92166C7.41569 6.92166 3.99446 9.11678 2.2344 12.36C3.99446 15.6033 7.41569 17.7984 11.3709 17.7984ZM11.3709 5.93286C15.8798 5.93286 19.7756 8.55317 21.6148 12.36C19.7756 16.1669 15.8798 18.7872 11.3709 18.7872C6.86196 18.7872 2.96611 16.1669 1.12695 12.36C2.96611 8.55317 6.86196 5.93286 11.3709 5.93286ZM11.3709 7.91045C13.8429 7.91045 15.8204 9.88804 15.8204 12.36C15.8204 14.832 13.8429 16.8096 11.3709 16.8096C8.89888 16.8096 6.92129 14.832 6.92129 12.36C6.92129 9.88804 8.89888 7.91045 11.3709 7.91045ZM11.3709 8.89925C10.453 8.89925 9.57275 9.26386 8.92373 9.91289C8.27471 10.5619 7.91009 11.4422 7.91009 12.36C7.91009 13.2779 8.27471 14.1581 8.92373 14.8072C9.57275 15.4562 10.453 15.8208 11.3709 15.8208C12.2887 15.8208 13.169 15.4562 13.818 14.8072C14.467 14.1581 14.8317 13.2779 14.8317 12.36C14.8317 11.4422 14.467 10.5619 13.818 9.91289C13.169 9.26386 12.2887 8.89925 11.3709 8.89925Z" fill="#657A88"/>
</svg>
