<svg width="18" height="15" viewBox="0 0 18 15" fill="none" xmlns="http://www.w3.org/2000/svg">
<path d="M8.97401 0L0 3.76811L8.97401 8.79212L13.2482 6.39924L9.23852 5.0266C9.15595 5.07093 9.06558 5.09406 8.97401 5.09428C8.81093 5.09428 8.65453 5.02175 8.53922 4.89263C8.42391 4.76352 8.35912 4.5884 8.35912 4.40581C8.35912 4.22321 8.42391 4.0481 8.53922 3.91898C8.65453 3.78987 8.81093 3.71733 8.97401 3.71733L8.87232 4.08747L9.5847 4.33287L9.58501 4.33528L10.6362 4.69523L16.6216 6.75716V7.2798C16.5389 7.34286 16.4711 7.42761 16.4242 7.52667C16.3773 7.62573 16.3527 7.73611 16.3526 7.84822C16.3527 7.96291 16.3784 8.07574 16.4274 8.17648C16.4763 8.27722 16.547 8.36267 16.6329 8.42508C16.353 9.60947 16.3526 12.2967 16.3526 13.356C16.9675 13.8033 16.9675 13.8196 17.5824 13.356C17.5824 12.2968 17.5821 9.61012 17.3022 8.42547C17.3882 8.363 17.4589 8.27748 17.5078 8.17666C17.5567 8.07584 17.5824 7.96292 17.5824 7.84818C17.5824 7.73595 17.5579 7.62542 17.511 7.52622C17.4641 7.42702 17.3963 7.34216 17.3134 7.27903V6.18521L15.0335 5.39979L17.948 3.76811L8.97401 0ZM3.733 6.8585L3.22868 10.2467C4.23459 10.3939 5.43788 11.0486 6.54406 11.8227C7.17317 12.263 7.76242 12.7462 8.24099 13.2151C8.53352 13.5017 8.77813 13.7767 8.97401 14.0472C9.16989 13.7766 9.4145 13.5017 9.70703 13.2151C10.1856 12.7462 10.7748 12.263 11.404 11.8227C12.5101 11.0486 13.7134 10.3939 14.7193 10.2467L14.2149 6.8585H13.9747L8.97401 9.65814L3.97319 6.8585H3.733Z" fill="#4C9DD1"/>
</svg>
