<svg width="27" height="27" viewBox="0 0 27 27" fill="none" xmlns="http://www.w3.org/2000/svg">
<path d="M13.1908 0C14.94 0 16.6175 0.694868 17.8544 1.93174C19.0913 3.16861 19.7861 4.84617 19.7861 6.59538C19.7861 8.34458 19.0913 10.0221 17.8544 11.259C16.6175 12.4959 14.94 13.1908 13.1908 13.1908C11.4416 13.1908 9.76399 12.4959 8.52712 11.259C7.29025 10.0221 6.59538 8.34458 6.59538 6.59538C6.59538 4.84617 7.29025 3.16861 8.52712 1.93174C9.76399 0.694868 11.4416 0 13.1908 0ZM13.1908 16.4884C20.4786 16.4884 26.3815 19.4399 26.3815 23.0838V26.3815H0V23.0838C0 19.4399 5.90286 16.4884 13.1908 16.4884Z" fill="white"/>
</svg>
