<svg width="16" height="15" viewBox="0 0 16 15" fill="none" xmlns="http://www.w3.org/2000/svg">
<path d="M1.70037 1.76651C2.03312 1.4125 2.42815 1.13169 2.86292 0.9401C3.29768 0.748512 3.76366 0.649902 4.23424 0.649902C4.70483 0.649902 5.1708 0.748512 5.60557 0.9401C6.04033 1.13169 6.43536 1.4125 6.76811 1.76651L7.9118 2.98323L9.0555 1.76651C9.72763 1.05158 10.6392 0.649975 11.5896 0.650053C12.5401 0.650131 13.4516 1.05188 14.1236 1.76693C14.7957 2.48197 15.1731 3.45174 15.1731 4.46289C15.173 5.47404 14.7954 6.44374 14.1232 7.15867L12.9795 8.37456L12.9897 8.38542L7.92201 13.7776L7.9118 13.7667L7.9016 13.7776L2.83386 8.38542L2.84407 8.37456L1.70037 7.15867C1.36749 6.80466 1.10344 6.38435 0.923277 5.92175C0.743118 5.45915 0.650391 4.96332 0.650391 4.46259C0.650391 3.96186 0.743118 3.46603 0.923277 3.00343C1.10344 2.54083 1.36749 2.12052 1.70037 1.76651Z" stroke="#4C9DD1" stroke-width="1.3" stroke-linejoin="round"/>
</svg>
