<svg width="11" height="14" viewBox="0 0 11 14" fill="none" xmlns="http://www.w3.org/2000/svg">
<path d="M1.20956 13.4728C0.874235 13.4728 0.588811 13.355 0.353287 13.1195C0.117762 12.884 0 12.5988 0 12.264V5.69974C0 5.36542 0.117762 5.08024 0.353287 4.84422C0.588811 4.60869 0.874235 4.49093 1.20956 4.49093H2.24547V2.99395C2.24547 2.16014 2.53613 1.45282 3.11746 0.871989C3.69828 0.290663 4.4056 0 5.23942 0C6.07324 0 6.78081 0.290663 7.36214 0.871989C7.94346 1.45332 8.23388 2.16064 8.23338 2.99395V4.49093H9.27003C9.60436 4.49093 9.88953 4.60869 10.1256 4.84422C10.3611 5.07974 10.4788 5.36517 10.4788 5.70049V12.264C10.4788 12.5983 10.3611 12.8835 10.1256 13.1195C9.89003 13.355 9.60486 13.4728 9.27003 13.4728H1.20956ZM1.20956 12.7243H9.27003C9.40426 12.7243 9.51454 12.6811 9.60086 12.5948C9.68719 12.5085 9.73035 12.3982 9.73035 12.264V5.69974C9.73035 5.56551 9.68719 5.45524 9.60086 5.36891C9.51454 5.28258 9.40426 5.23942 9.27003 5.23942H1.20881C1.07458 5.23942 0.964303 5.28258 0.877977 5.36891C0.791651 5.45524 0.748489 5.56576 0.748489 5.70049V12.264C0.748489 12.3982 0.791651 12.5085 0.877977 12.5948C0.964303 12.6811 1.07483 12.7243 1.20956 12.7243ZM6.03731 9.77975C6.25387 9.56369 6.36215 9.29773 6.36215 8.98186C6.36215 8.666 6.25387 8.40004 6.03731 8.18398C5.82075 7.96791 5.55478 7.85963 5.23942 7.85913C4.92406 7.85863 4.65809 7.96691 4.44153 8.18398C4.22497 8.40004 4.11669 8.666 4.11669 8.98186C4.11669 9.29773 4.22497 9.56369 4.44153 9.77975C4.6576 9.99632 4.92356 10.1046 5.23942 10.1046C5.55528 10.1046 5.82125 9.99632 6.03731 9.77975ZM2.99395 4.49093H7.48489V2.99395C7.48489 2.37021 7.26658 1.84003 6.82996 1.40342C6.39334 0.966798 5.86316 0.748489 5.23942 0.748489C4.61568 0.748489 4.0855 0.966798 3.64888 1.40342C3.21226 1.84003 2.99395 2.37021 2.99395 2.99395V4.49093Z" fill="black"/>
</svg>
