<svg width="24" height="24" viewBox="0 0 24 24" fill="none" xmlns="http://www.w3.org/2000/svg">
<g clip-path="url(#clip0_784_2430)">
<path d="M13.5822 23.2599L13.5932 23.2579C13.6018 23.2593 13.6075 23.2653 13.6102 23.2759L13.6272 23.7029L13.6232 23.7199L13.6112 23.7359L13.5072 23.8099L13.4952 23.8139L13.4802 23.8099L13.3762 23.7359L13.3662 23.7229L13.3612 23.7029L13.3782 23.2749L13.3822 23.2649C13.3875 23.2583 13.3955 23.2566 13.4062 23.2599L13.4772 23.2949L13.4912 23.2989L13.5112 23.2949L13.5822 23.2599Z" fill="#4C9DD1"/>
<path d="M13.8452 23.1469L13.8582 23.1449C13.8682 23.1476 13.8748 23.1549 13.8782 23.1669L13.9122 23.7809L13.9082 23.7949C13.9015 23.8036 13.8918 23.8063 13.8792 23.8029L13.6782 23.7099L13.6702 23.7029L13.6652 23.6909L13.6472 23.2609L13.6502 23.2499L13.6602 23.2399L13.8452 23.1469Z" fill="#4C9DD1"/>
<path d="M13.1285 23.1445C13.1335 23.1434 13.1388 23.1443 13.1432 23.1469L13.3272 23.2389L13.3372 23.2489L13.3402 23.2609L13.3232 23.6909L13.3192 23.7019L13.3092 23.7099L13.1082 23.8029L13.0932 23.8049C13.0825 23.8009 13.0768 23.7929 13.0762 23.7809L13.1102 23.1669L13.1162 23.1529C13.119 23.1487 13.1234 23.1456 13.1285 23.1445Z" fill="#4C9DD1"/>
<path d="M13 2C14.5524 1.99994 16.0444 2.60157 17.1625 3.67847C18.2806 4.75537 18.9378 6.22371 18.996 7.775L19 8H20C20.5046 7.99984 20.9906 8.19041 21.3605 8.5335C21.7305 8.87659 21.9572 9.34685 21.995 9.85L22 10V20C22.0002 20.5046 21.8096 20.9906 21.4665 21.3605C21.1234 21.7305 20.6532 21.9572 20.15 21.995L20 22H6C5.49542 22.0002 5.00943 21.8096 4.63945 21.4665C4.26947 21.1234 4.04284 20.6532 4.005 20.15L4 20V10C3.99984 9.49542 4.19041 9.00943 4.5335 8.63945C4.87659 8.26947 5.34684 8.04284 5.85 8.005L6 8H7C7 6.4087 7.63214 4.88258 8.75736 3.75736C9.88258 2.63214 11.4087 2 13 2ZM20 10H6V20H20V10ZM13 12C13.4266 12.0001 13.842 12.1367 14.1854 12.3896C14.5289 12.6426 14.7825 12.9988 14.9092 13.4062C15.0358 13.8135 15.0289 14.2507 14.8895 14.6538C14.75 15.057 14.4853 15.405 14.134 15.647L14 15.732V17C13.9997 17.2549 13.9021 17.5 13.7272 17.6854C13.5522 17.8707 13.313 17.9822 13.0586 17.9972C12.8042 18.0121 12.5536 17.9293 12.3582 17.7657C12.1627 17.6021 12.0371 17.3701 12.007 17.117L12 17V15.732C11.6187 15.5119 11.3208 15.1721 11.1523 14.7653C10.9838 14.3586 10.9543 13.9076 11.0682 13.4824C11.1822 13.0571 11.4333 12.6813 11.7825 12.4133C12.1318 12.1453 12.5597 12 13 12ZM13 4C11.9391 4 10.9217 4.42143 10.1716 5.17157C9.42143 5.92172 9 6.93913 9 8H17C17 6.93913 16.5786 5.92172 15.8284 5.17157C15.0783 4.42143 14.0609 4 13 4Z" fill="#4C9DD1"/>
</g>
<defs>
<clipPath id="clip0_784_2430">
<rect width="24" height="24" fill="white"/>
</clipPath>
</defs>
</svg>
