<svg width="24" height="24" viewBox="0 0 24 24" fill="none" xmlns="http://www.w3.org/2000/svg">
<path d="M12.434 16.28C12.5553 16.1587 12.616 16.014 12.616 15.846C12.616 15.678 12.5553 15.5337 12.434 15.413C12.3127 15.2923 12.168 15.2313 12 15.23C11.832 15.2287 11.6873 15.2893 11.566 15.412C11.4447 15.5347 11.384 15.679 11.384 15.845C11.384 16.011 11.4447 16.1557 11.566 16.279C11.6873 16.4023 11.832 16.4627 12 16.46C12.168 16.4573 12.3127 16.397 12.434 16.279M12.357 13.009C12.4523 12.913 12.5 12.7943 12.5 12.653V7.653C12.5 7.511 12.452 7.39233 12.356 7.297C12.26 7.20167 12.141 7.15367 11.999 7.153C11.857 7.15233 11.7383 7.20033 11.643 7.297C11.5477 7.39367 11.5 7.51233 11.5 7.653V12.653C11.5 12.7943 11.548 12.913 11.644 13.009C11.74 13.105 11.859 13.153 12.001 13.153C12.143 13.153 12.2617 13.105 12.357 13.009ZM12.003 21C10.759 21 9.589 20.764 8.493 20.292C7.39767 19.8193 6.44467 19.178 5.634 18.368C4.82333 17.558 4.18167 16.606 3.709 15.512C3.23633 14.418 3 13.2483 3 12.003C3 10.7577 3.23633 9.58767 3.709 8.493C4.181 7.39767 4.82133 6.44467 5.63 5.634C6.43867 4.82333 7.391 4.18167 8.487 3.709C9.583 3.23633 10.753 3 11.997 3C13.241 3 14.411 3.23633 15.507 3.709C16.6023 4.181 17.5553 4.82167 18.366 5.631C19.1767 6.44033 19.8183 7.39267 20.291 8.488C20.7637 9.58333 21 10.753 21 11.997C21 13.241 20.764 14.411 20.292 15.507C19.82 16.603 19.1787 17.556 18.368 18.366C17.5573 19.176 16.6053 19.8177 15.512 20.291C14.4187 20.7643 13.249 21.0007 12.003 21Z" fill="#4C9DD1"/>
</svg>
