<svg width="18" height="18" viewBox="0 0 18 18" fill="none" xmlns="http://www.w3.org/2000/svg">
<g clip-path="url(#clip0_784_2356)">
<rect width="17.2012" height="17.2012" fill="white"/>
<path d="M9.76769 16.6637H1.61218C1.32706 16.6637 1.05361 16.5504 0.851991 16.3488C0.650376 16.1472 0.537109 15.8738 0.537109 15.5886V1.61267C0.537109 1.32754 0.650376 1.05409 0.851991 0.852479C1.05361 0.650864 1.32706 0.537598 1.61218 0.537598H15.5881C15.8733 0.537598 16.1467 0.650864 16.3483 0.852479C16.5499 1.05409 16.6632 1.32754 16.6632 1.61267V9.76818C16.6631 10.0531 16.55 10.3264 16.3486 10.5279L10.5274 16.3491C10.3259 16.5505 10.0526 16.6636 9.76769 16.6637Z" stroke="#4C9DD1" stroke-width="1.5" stroke-linecap="round" stroke-linejoin="round"/>
<path d="M10.2133 16.5669V11.2883C10.2133 11.0032 10.3265 10.7298 10.5281 10.5281C10.7298 10.3265 11.0032 10.2133 11.2883 10.2133H16.5669M4.83789 4.83789H13.4385M4.83789 8.06311H8.60065" stroke="#4C9DD1" stroke-width="1.5" stroke-linecap="round" stroke-linejoin="round"/>
</g>
<defs>
<clipPath id="clip0_784_2356">
<rect width="17.2012" height="17.2012" fill="white"/>
</clipPath>
</defs>
</svg>
