<svg width="24" height="24" viewBox="0 0 24 24" fill="none" xmlns="http://www.w3.org/2000/svg">
<path d="M9.63297 16.8735C9.95367 17.4289 10.4149 17.8901 10.9704 18.2108C11.5258 18.5314 12.1558 18.7002 12.7972 18.7002C13.4386 18.7002 14.0686 18.5314 14.624 18.2108C15.1795 17.8901 15.6407 17.4289 15.9614 16.8735M4.57797 14.843C4.45207 14.981 4.36899 15.1526 4.33882 15.337C4.30866 15.5213 4.33271 15.7105 4.40807 15.8814C4.48342 16.0523 4.60682 16.1977 4.76326 16.2997C4.9197 16.4018 5.10243 16.4562 5.28923 16.4564H20.7094C20.8961 16.4564 21.0789 16.4022 21.2354 16.3003C21.392 16.1985 21.5155 16.0533 21.5911 15.8825C21.6666 15.7117 21.6909 15.5226 21.661 15.3382C21.6311 15.1538 21.5482 14.9821 21.4225 14.844C20.1407 13.5227 18.7818 12.1185 18.7818 7.78255C18.7818 6.24892 18.1726 4.77811 17.0882 3.69367C16.0037 2.60923 14.5329 2 12.9993 2C11.4657 2 9.99485 2.60923 8.91041 3.69367C7.82597 4.77811 7.21674 6.24892 7.21674 7.78255C7.21674 12.1185 5.85688 13.5227 4.57797 14.843Z" stroke="#4C9DD1" stroke-width="1.3" stroke-linecap="round" stroke-linejoin="round"/>
</svg>
