<svg width="17" height="17" viewBox="0 0 17 17" fill="none" xmlns="http://www.w3.org/2000/svg">
<path d="M16.1106 16.5L10.9071 11.1667M0.5 6.72222C0.5 7.53934 0.657026 8.34845 0.962111 9.10336C1.2672 9.85828 1.71437 10.5442 2.27809 11.122C2.84182 11.6998 3.51105 12.1581 4.2476 12.4708C4.98414 12.7835 5.77356 12.9444 6.57078 12.9444C7.36801 12.9444 8.15743 12.7835 8.89397 12.4708C9.63051 12.1581 10.2998 11.6998 10.8635 11.122C11.4272 10.5442 11.8744 9.85828 12.1795 9.10336C12.4845 8.34845 12.6416 7.53934 12.6416 6.72222C12.6416 5.90511 12.4845 5.096 12.1795 4.34108C11.8744 3.58617 11.4272 2.90023 10.8635 2.32245C10.2998 1.74466 9.63051 1.28633 8.89397 0.973638C8.15743 0.660942 7.36801 0.5 6.57078 0.5C5.77356 0.5 4.98414 0.660942 4.2476 0.973638C3.51105 1.28633 2.84182 1.74466 2.27809 2.32245C1.71437 2.90023 1.2672 3.58617 0.962111 4.34108C0.657026 5.096 0.5 5.90511 0.5 6.72222Z" stroke="#949494" stroke-linecap="round" stroke-linejoin="round"/>
</svg>
