<svg width="24" height="21" viewBox="0 0 24 21" fill="none" xmlns="http://www.w3.org/2000/svg">
<path d="M10.295 19.7159C10.3885 19.8082 10.4993 19.8811 10.6209 19.9306C10.7426 19.98 10.8729 20.005 11.0042 20.0041C11.1356 20.0032 11.2655 19.9765 11.3865 19.9254C11.5075 19.8743 11.6172 19.7999 11.7095 19.7064C11.8018 19.6129 11.8747 19.5022 11.9241 19.3805C11.9736 19.2588 11.9986 19.1286 11.9977 18.9972C11.9968 18.8659 11.9701 18.736 11.919 18.615C11.8679 18.4939 11.7935 18.3842 11.7 18.2919L6.33 12.9999L20 12.9999C20.2652 12.9999 20.5196 12.8946 20.7071 12.707C20.8946 12.5195 21 12.2651 21 11.9999C21 11.7347 20.8946 11.4804 20.7071 11.2928C20.5196 11.1053 20.2652 10.9999 20 10.9999L6.335 10.9999L11.7 5.71493C11.8794 5.52691 11.9786 5.27645 11.9765 5.01659C11.9744 4.75672 11.8712 4.50788 11.6888 4.32277C11.5065 4.13765 11.2592 4.03081 10.9994 4.02486C10.7396 4.01892 10.4877 4.11435 10.297 4.29093L3.372 11.1129C3.25408 11.2292 3.16045 11.3678 3.09654 11.5206C3.03263 11.6734 2.99972 11.8373 2.99972 12.0029C2.99972 12.1685 3.03263 12.3325 3.09654 12.4853C3.16045 12.6381 3.25408 12.7766 3.372 12.8929L10.295 19.7159Z" fill="#F34876"/>
</svg>
