<svg width="19" height="16" viewBox="0 0 19 16" fill="none" xmlns="http://www.w3.org/2000/svg">
<path d="M10.7909 0.288225C10.6966 0.195971 10.585 0.123038 10.4623 0.0735878C10.3396 0.0241379 10.2084 -0.000859595 10.076 2.25594e-05C9.94356 0.000904714 9.81263 0.0276492 9.69065 0.0787291C9.56866 0.129809 9.45802 0.204224 9.36502 0.297725C9.27203 0.391226 9.19851 0.501983 9.14866 0.62367C9.09882 0.745358 9.07362 0.875594 9.07451 1.00694C9.0754 1.13829 9.10236 1.26818 9.15385 1.38919C9.20534 1.51021 9.28035 1.61997 9.3746 1.71223L14.7877 7.00423L1.00802 7.00423C0.740678 7.00423 0.484283 7.10958 0.295243 7.29712C0.106202 7.48465 0 7.73901 0 8.00422C0 8.26944 0.106202 8.5238 0.295243 8.71133C0.484283 8.89887 0.740678 9.00422 1.00802 9.00422L14.7826 9.00422L9.3746 14.2892C9.19377 14.4772 9.09381 14.7277 9.09591 14.9876C9.09801 15.2474 9.202 15.4963 9.38585 15.6814C9.5697 15.8665 9.81896 15.9733 10.0808 15.9793C10.3427 15.9852 10.5967 15.8898 10.7889 15.7132L17.7694 8.89122C17.8883 8.77493 17.9826 8.63637 18.0471 8.48359C18.1115 8.3308 18.1447 8.16684 18.1447 8.00122C18.1447 7.83561 18.1115 7.67165 18.0471 7.51886C17.9826 7.36608 17.8883 7.22752 17.7694 7.11123L10.7909 0.288225Z" fill="#4C9DD1"/>
</svg>
