<svg width="22" height="22" viewBox="0 0 22 22" fill="none" xmlns="http://www.w3.org/2000/svg">
<path d="M10.999 11.649L6.1902 16.4578C6.10464 16.5434 5.99953 16.5892 5.87486 16.5953C5.7502 16.6015 5.63898 16.5556 5.5412 16.4578C5.44342 16.3601 5.39453 16.2519 5.39453 16.1333C5.39453 16.0148 5.44342 15.9066 5.5412 15.8088L10.35 11L5.5412 6.19117C5.45564 6.10562 5.40981 6.00051 5.4037 5.87584C5.39759 5.75117 5.44342 5.63995 5.5412 5.54217C5.63898 5.4444 5.74714 5.39551 5.8657 5.39551C5.98425 5.39551 6.09242 5.4444 6.1902 5.54217L10.999 10.351L15.8079 5.54217C15.8934 5.45662 15.9988 5.41079 16.1241 5.40467C16.2482 5.39856 16.3591 5.4444 16.4569 5.54217C16.5546 5.63995 16.6035 5.74812 16.6035 5.86667C16.6035 5.98523 16.5546 6.0934 16.4569 6.19117L11.648 11L16.4569 15.8088C16.5424 15.8944 16.5883 15.9998 16.5944 16.1251C16.6005 16.2491 16.5546 16.3601 16.4569 16.4578C16.3591 16.5556 16.2509 16.6045 16.1324 16.6045C16.0138 16.6045 15.9056 16.5556 15.8079 16.4578L10.999 11.649Z" fill="#949494"/>
</svg>
