<svg width="12" height="12" viewBox="0 0 12 12" fill="none" xmlns="http://www.w3.org/2000/svg">
<path fill-rule="evenodd" clip-rule="evenodd" d="M5.96436 5.96436C7.42894 5.96436 8.61518 4.77811 8.61518 3.31353C8.61518 1.84895 7.42894 0.662706 5.96436 0.662706C4.49977 0.662706 3.31353 1.84895 3.31353 3.31353C3.31353 4.77811 4.49977 5.96436 5.96436 5.96436ZM9.27789 3.31353C9.27789 5.14426 7.79508 6.62706 5.96436 6.62706C4.13363 6.62706 2.65082 5.14426 2.65082 3.31353C2.65082 1.4828 4.13363 0 5.96436 0C7.79508 0 9.27789 1.4828 9.27789 3.31353ZM1.06795 9.34813C0.735604 9.61653 0.662706 9.81766 0.662706 9.94059V11.266H11.266V9.94059C11.266 9.81799 11.1931 9.6162 10.8604 9.34813C10.5357 9.08603 10.0513 8.83619 9.46411 8.62015C8.29045 8.1884 6.87657 7.95247 5.96436 7.95247C5.05214 7.95247 3.63826 8.1884 2.4646 8.62015C1.87745 8.83619 1.39301 9.08603 1.06795 9.34813ZM5.96436 7.28977C3.97392 7.28977 0 8.29542 0 9.94059V11.9287H11.9287V9.94059C11.9287 8.29542 7.95512 7.28977 5.96436 7.28977Z" fill="#4C9DD1"/>
</svg>
