<svg width="22" height="22" viewBox="0 0 22 22" fill="none" xmlns="http://www.w3.org/2000/svg">
<path d="M6.06434 19.25C5.65367 19.25 5.30412 19.1058 5.01567 18.8173C4.72723 18.5289 4.58301 18.1796 4.58301 17.7696V9.73042C4.58301 9.32097 4.72723 8.97172 5.01567 8.68267C5.30412 8.39422 5.65367 8.25 6.06434 8.25H7.33301V6.41667C7.33301 5.3955 7.68898 4.52925 8.40092 3.81792C9.11226 3.10597 9.97851 2.75 10.9997 2.75C12.0208 2.75 12.8874 3.10597 13.5993 3.81792C14.3113 4.52986 14.667 5.39611 14.6663 6.41667V8.25H15.9359C16.3454 8.25 16.6946 8.39422 16.9837 8.68267C17.2721 8.97111 17.4163 9.32067 17.4163 9.73133V17.7696C17.4163 18.179 17.2721 18.5283 16.9837 18.8173C16.6952 19.1058 16.346 19.25 15.9359 19.25H6.06434ZM6.06434 18.3333H15.9359C16.1003 18.3333 16.2354 18.2805 16.3411 18.1748C16.4468 18.069 16.4997 17.934 16.4997 17.7696V9.73042C16.4997 9.56603 16.4468 9.43097 16.3411 9.32525C16.2354 9.21953 16.1003 9.16667 15.9359 9.16667H6.06342C5.89904 9.16667 5.76398 9.21953 5.65826 9.32525C5.55254 9.43097 5.49967 9.56633 5.49967 9.73133V17.7696C5.49967 17.934 5.55254 18.069 5.65826 18.1748C5.76398 18.2805 5.89934 18.3333 6.06434 18.3333ZM11.9768 14.7272C12.2421 14.4626 12.3747 14.1368 12.3747 13.75C12.3747 13.3632 12.2421 13.0374 11.9768 12.7728C11.7116 12.5082 11.3859 12.3756 10.9997 12.375C10.6135 12.3744 10.2877 12.507 10.0225 12.7728C9.75729 13.0374 9.62467 13.3632 9.62467 13.75C9.62467 14.1368 9.75729 14.4626 10.0225 14.7272C10.2871 14.9924 10.6128 15.125 10.9997 15.125C11.3865 15.125 11.7122 14.9924 11.9768 14.7272ZM8.24967 8.25H13.7497V6.41667C13.7497 5.65278 13.4823 5.00347 12.9476 4.46875C12.4129 3.93403 11.7636 3.66667 10.9997 3.66667C10.2358 3.66667 9.58648 3.93403 9.05176 4.46875C8.51704 5.00347 8.24967 5.65278 8.24967 6.41667V8.25Z" fill="#AFB1B6"/>
</svg>
